<svg width="144" height="144" viewBox="0 0 144 144" fill="none" xmlns="http://www.w3.org/2000/svg">
<path d="M76.8036 91.5871C75.3026 90.9529 74.3457 89.4982 74.3457 87.8942V60.0483C74.3457 57.1761 77.3102 55.2364 79.9746 56.3554L118.87 72.9175L120.709 73.6822C124.48 75.1556 124.968 78.0465 124.968 82.0005V105.986C124.968 108.858 122.003 110.798 119.339 109.679L80.4436 93.1165L76.8224 91.5871H76.8036Z" fill="#582C63"/>
<path d="M74.3262 63.7039V87.8196C74.3262 90.6918 77.2907 92.6315 79.955 91.5125L129.902 70.2317L131.74 69.467C135.512 67.9936 136 65.1027 136 61.1487V37.0144C136 34.1421 133.035 32.2024 130.371 33.3215L80.4241 54.6022L76.634 56.4114C75.2268 57.0828 74.3449 58.4816 74.3449 60.0297V63.6853L74.3262 63.7039Z" fill="#83378F"/>
<path d="M67.1972 91.5871C68.6982 90.9529 69.6551 89.4982 69.6551 87.8942V60.0483C69.6551 57.1761 66.6906 55.2364 64.0263 56.3554L25.1497 72.8988L23.3109 73.6635C19.5396 75.1369 19.0518 78.0278 19.0518 81.9818V105.967C19.0518 108.839 22.0163 110.779 24.6806 109.66L63.5759 93.0978L67.1972 91.5684V91.5871Z" fill="#582C63"/>
<path d="M69.6546 63.7039V87.8196C69.6546 90.6918 66.6901 92.6315 64.0258 91.5125L14.0979 70.2131L12.2592 69.4484C8.46907 67.975 8 65.1027 8 61.1301V37.0144C8 34.1421 10.9645 32.2024 13.6288 33.3215L63.5755 54.6022L67.3656 56.4114C68.7728 57.0828 69.6546 58.4816 69.6546 60.0297V63.6853V63.7039Z" fill="#83378F"/>
</svg>
