<?xml version="1.0" encoding="UTF-8"?>
<svg width="120" height="40" viewBox="0 0 120 40" fill="none" xmlns="http://www.w3.org/2000/svg">
  <path d="M23.5 8L16 32H10L17.5 8H23.5Z" fill="#E30613"/>
  <path d="M33.5 8L26 32H20L27.5 8H33.5Z" fill="#E30613"/>
  <path d="M43.5 8L36 32H30L37.5 8H43.5Z" fill="#E30613"/>
  <path d="M53.5 8L46 32H40L47.5 8H53.5Z" fill="#E30613"/>
  <path d="M63.5 8L56 32H50L57.5 8H63.5Z" fill="#E30613"/>
  <path d="M73.5 8L66 32H60L67.5 8H73.5Z" fill="#E30613"/>
  <path d="M83.5 8L76 32H70L77.5 8H83.5Z" fill="#E30613"/>
  <path d="M93.5 8L86 32H80L87.5 8H93.5Z" fill="#E30613"/>
  <path d="M103.5 8L96 32H90L97.5 8H103.5Z" fill="#E30613"/>
  <path d="M113.5 8L106 32H100L107.5 8H113.5Z" fill="#E30613"/>
</svg>